<?xml version="1.0" encoding="UTF-8" standalone="no"?>
<svg
   xmlns:dc="http://purl.org/dc/elements/1.1/"
   xmlns:cc="http://creativecommons.org/ns#"
   xmlns:rdf="http://www.w3.org/1999/02/22-rdf-syntax-ns#"
   xmlns:svg="http://www.w3.org/2000/svg"
   xmlns="http://www.w3.org/2000/svg"
   xmlns:sodipodi="http://sodipodi.sourceforge.net/DTD/sodipodi-0.dtd"
   xmlns:inkscape="http://www.inkscape.org/namespaces/inkscape"
   version="1.2"
   width="247.07343"
   height="100.95889"
   viewBox="0 0 39.680001 16.214"
   id="svg2"
   inkscape:version="0.48.5 r10040"
   sodipodi:docname="StaffGroup.svg">
  <metadata
     id="metadata82">
    <rdf:RDF>
      <cc:Work
         rdf:about="">
        <dc:format>image/svg+xml</dc:format>
        <dc:type
           rdf:resource="http://purl.org/dc/dcmitype/StillImage" />
      </cc:Work>
    </rdf:RDF>
  </metadata>
  <defs
     id="defs80" />
  <sodipodi:namedview
     pagecolor="#ffffff"
     bordercolor="#666666"
     borderopacity="1"
     objecttolerance="10"
     gridtolerance="10"
     guidetolerance="10"
     inkscape:pageopacity="0"
     inkscape:pageshadow="2"
     inkscape:window-width="1920"
     inkscape:window-height="1018"
     id="namedview78"
     showgrid="false"
     fit-margin-top="0"
     fit-margin-left="0"
     fit-margin-right="0"
     fit-margin-bottom="0"
     inkscape:zoom="1"
     inkscape:cx="291.62136"
     inkscape:cy="-170.97376"
     inkscape:window-x="-8"
     inkscape:window-y="-8"
     inkscape:window-maximized="1"
     inkscape:current-layer="svg2" />
  <!-- Page: 1/1 -->
  <text
     transform="translate(-7.2258,0.55699826)"
     font-size="2.1995"
     id="text4"
     style="font-size:2.19950008px;text-anchor:start;fill:currentColor;font-family:Century Schoolbook L">
    <tspan
       id="tspan6" />
  </text>
  <rect
     transform="translate(39.49,3.6069983)"
     x="0"
     y="-2.05"
     width="0.19"
     height="4.0999999"
     ry="0"
     id="rect12"
     style="fill:currentColor" />
  <rect
     transform="translate(39.49,12.606998)"
     x="0"
     y="-2.05"
     width="0.19"
     height="4.0999999"
     ry="0"
     id="rect16"
     style="fill:currentColor" />
  <rect
     transform="translate(39.49,1.5569983)"
     x="0"
     y="4.0999999"
     width="0.19"
     height="4.9000001"
     ry="0"
     id="rect26"
     style="fill:currentColor" />
  <line
     transform="translate(1.31,5.6069983)"
     x1="0.050000001"
     y1="0"
     x2="38.32"
     y2="0"
     id="line38"
     style="stroke:currentColor;stroke-width:0.1;stroke-linecap:round;stroke-linejoin:round" />
  <line
     transform="translate(1.31,4.6069983)"
     x1="0.050000001"
     y1="0"
     x2="38.32"
     y2="0"
     id="line40"
     style="stroke:currentColor;stroke-width:0.1;stroke-linecap:round;stroke-linejoin:round" />
  <line
     transform="translate(1.31,3.6069983)"
     x1="0.050000001"
     y1="0"
     x2="38.32"
     y2="0"
     id="line42"
     style="stroke:currentColor;stroke-width:0.1;stroke-linecap:round;stroke-linejoin:round" />
  <line
     transform="translate(1.31,2.6069983)"
     x1="0.050000001"
     y1="0"
     x2="38.32"
     y2="0"
     id="line44"
     style="stroke:currentColor;stroke-width:0.1;stroke-linecap:round;stroke-linejoin:round" />
  <line
     transform="translate(1.31,1.6069983)"
     x1="0.050000001"
     y1="0"
     x2="38.32"
     y2="0"
     id="line46"
     style="stroke:currentColor;stroke-width:0.1;stroke-linecap:round;stroke-linejoin:round" />
  <line
     transform="translate(1.31,14.606998)"
     x1="0.050000001"
     y1="0"
     x2="38.32"
     y2="0"
     id="line50"
     style="stroke:currentColor;stroke-width:0.1;stroke-linecap:round;stroke-linejoin:round" />
  <line
     transform="translate(1.31,13.606998)"
     x1="0.050000001"
     y1="0"
     x2="38.32"
     y2="0"
     id="line52"
     style="stroke:currentColor;stroke-width:0.1;stroke-linecap:round;stroke-linejoin:round" />
  <line
     transform="translate(1.31,12.606998)"
     x1="0.050000001"
     y1="0"
     x2="38.32"
     y2="0"
     id="line54"
     style="stroke:currentColor;stroke-width:0.1;stroke-linecap:round;stroke-linejoin:round" />
  <line
     transform="translate(1.31,11.606998)"
     x1="0.050000001"
     y1="0"
     x2="38.32"
     y2="0"
     id="line56"
     style="stroke:currentColor;stroke-width:0.1;stroke-linecap:round;stroke-linejoin:round" />
  <line
     transform="translate(1.31,10.606998)"
     x1="0.050000001"
     y1="0"
     x2="38.32"
     y2="0"
     id="line58"
     style="stroke:currentColor;stroke-width:0.1;stroke-linecap:round;stroke-linejoin:round" />
  <rect
     transform="translate(1.25,8.1069983)"
     x="0"
     y="-6.5500002"
     width="0.16"
     height="13.1"
     ry="0.050000001"
     id="rect70"
     style="fill:currentColor" />
  <path
     transform="matrix(0.004,0,0,-0.004,0,1.3319983)"
     d="m 450,333 c 9,0 16,-8 16,-16 0,-3 -1,-6 -3,-9 C 364,164 248,-56 75,-56 H 0 v 87 c 0,14 11,25 25,25 h 50 c 159,0 271,136 362,270 3,4 8,7 13,7 z"
     id="path72"
     inkscape:connector-curvature="0"
     style="fill:currentColor" />
  <path
     transform="matrix(0.004,0,0,-0.004,0,14.881998)"
     d="m 466,-317 c 0,-8 -7,-16 -16,-16 -5,0 -10,3 -13,7 C 346,-192 234,-56 75,-56 H 25 C 11,-56 0,-45 0,-31 v 87 h 75 c 173,0 289,-220 388,-364 2,-3 3,-6 3,-9 z"
     id="path74"
     inkscape:connector-curvature="0"
     style="fill:currentColor" />
  <rect
     transform="translate(0,8.1069983)"
     x="0"
     y="-6.5949998"
     width="0.44999999"
     height="13.19"
     ry="0"
     id="rect76"
     style="fill:currentColor" />
</svg>
